<?xml version="1.0" encoding="utf-8"?>
<!-- Generator: Adobe Illustrator 27.5.0, SVG Export Plug-In . SVG Version: 6.00 Build 0)  -->
<svg version="1.1" id="Layer_1" xmlns="http://www.w3.org/2000/svg" xmlns:xlink="http://www.w3.org/1999/xlink" x="0px" y="0px"
	 viewBox="0 0 208.5 180" style="enable-background:new 0 0 208.5 180;" xml:space="preserve">
<style type="text/css">
	.st0{fill:#FFFFFF;}
	.st1{display:none;}
	.st2{display:inline;}
	.st3{display:none;fill:#B83A26;}
</style>
<g>
	<g>
		<path class="st0" d="M119.2,172.1c-0.9-6.3-3.7-83.4-3.7-83.4s-0.4-4.6-2.9-5.8c-0.3-1.3-0.6-5-0.8-10h-5.8
			c-0.3,7.2-1.1,13.4-2.4,16.9c-1.4,1.4-2.5,1.3-2.5,1.3v86.2h-2.4c-1-0.3-3.8-1.5-3.3-4.7c0.9-6.3,3.6-79.6,3.7-83.7
			c0.2-1.6,0.8-3.3,1.3-3.5l1.2-0.6l0.3-1.3c0.3-1.2,0.6-5.2,0.8-10.6h-2.7c-0.2,5-0.5,8.7-0.8,10c-2.5,1.2-2.9,5.8-2.9,5.8
			s-2.8,77.1-3.7,83.4c-0.9,6.3,5.7,7.9,5.7,7.9h15.1C113.5,180,120.2,178.4,119.2,172.1z"/>
	</g>
	<g>
		<path class="st0" d="M127.6,97h-3.8V77.5h3.8V97z"/>
		<path class="st0" d="M130.3,77h2.7l10.2,13.6h0.1V77.5h3.8v19.8h-2.7l-10.2-13.6h-0.1V97h-3.8V77z"/>
		<path class="st0" d="M163.7,97h-3.8V80.8H156v-3.3h11.6v3.3h-3.9V97z"/>
		<path class="st0" d="M179.8,85.2v-7.7h3.8V97h-3.8v-8.7h-7V97H169V77.5h3.8v7.7H179.8z"/>
		<path class="st0" d="M190.2,80.8v4.3h6v3.3h-6v5.3h6.3V97h-10.1V77.5h10.1v3.3H190.2z"/>
	</g>
	<g>
		<path class="st0" d="M13.9,138v-14.1H9.4V138H0v-34.8h9.4v12.5h4.5v-12.5h9.4V138H13.9z"/>
		<path class="st0" d="M42.6,138l-0.7-4.5h-6.3l-0.8,4.5h-9.7l8.3-34.8h11.5l7.4,34.8H42.6z M40.8,126.2l-1-8.1
			c-0.3-2.2-0.5-4.4-0.7-6.6H39c-0.3,2.2-0.5,4.4-0.9,6.6l-1.3,8.1H40.8z"/>
		<path class="st0" d="M81.6,138l-0.9-21.9h-0.1c-0.4,2.5-0.7,5.1-1.2,7.6L76.8,138h-7.7l-3.3-21.9h-0.1c0,2.6,0,5.1-0.1,7.7
			L64.8,138H54.7l4.1-34.8h11.7l2.7,18.5h0.1c0.3-2.2,0.5-4.3,0.9-6.5l2.3-12H88l3.4,34.8H81.6z"/>
	</g>
	<g>
		<path class="st0" d="M147.5,138l-0.9-21.9h-0.1c-0.4,2.5-0.7,5.1-1.2,7.6l-2.7,14.3H135l-3.3-21.9h-0.1c0,2.6,0,5.1-0.1,7.7
			l-0.8,14.2h-10.1l4.1-34.8h11.7l2.7,18.5h0.1c0.3-2.2,0.5-4.3,0.9-6.5l2.3-12h11.6l3.4,34.8H147.5z"/>
		<path class="st0" d="M161.4,103.2h17.5v8.2h-8.1v4.8h7.2v8.2h-7.2v5.3h8.1v8.2h-17.5V103.2z"/>
		<path class="st0" d="M198.4,138l-5.2-14.5l-0.1,0.1c0,1.7,0.1,3.4,0.1,5.1v9.3h-9.4v-34.8h9.1c8.2,0,14.1,2.4,14.1,11.6
			c0,3.8-1.7,7.2-5.4,8.7l7,14.5H198.4z M193.8,119.3c2.5,0,3.8-2.2,3.8-4.4c0-3-1.8-4.3-4.4-4.2v8.6L193.8,119.3z"/>
	</g>
	<g>
		<path class="st0" d="M44.4,70.7V55.8h-5.8v14.9H26.3V34h12.2v13.1h5.8V34h12.2v36.7H44.4z"/>
		<path class="st0" d="M83.4,70.7L82.5,66h-8.2l-1,4.7H60.7L71.6,34h14.9l9.6,36.7H83.4z M81.1,58.2l-1.3-8.5
			c-0.4-2.3-0.6-4.6-0.9-6.9h-0.1c-0.4,2.3-0.7,4.6-1.1,6.9l-1.7,8.5H81.1z"/>
		<path class="st0" d="M100.1,34h11.6l9.8,22.1l0.1-0.1c-0.5-4.2-1.4-8.4-1.4-12.7V34H132v36.7h-11.7l-9.1-21.2l-0.1,0.1
			c0.3,3.5,0.8,6.9,0.8,10.3v10.8h-11.7V34z"/>
		<path class="st0" d="M139.2,34h9.8c13.9,0,21.4,7.1,21.4,18.2c0,16.9-13.1,18.5-20.6,18.5h-10.7V34z M151.4,61.9
			c5.6,0,6.5-5.7,6.5-9.2c0-4-1-9.5-6.5-9.5V61.9z"/>
		<path class="st0" d="M184.3,70.7V55.1L173.1,34h12.7l4.2,11.3h0.1l4.3-11.3H207l-10.5,21.1v15.6H184.3z"/>
	</g>
	<path class="st0" d="M129.7,0c0,0-8.2,5.6-16.7,0H95.9c0,0-22.9,2.9-27.7,25.9c-0.1,0.6,0,1.3,0.5,1.8c0.4,0.5,1,0.8,1.7,0.8
		c0,0,8.5-16.1,26.8-14.3c0,2.5,0.1,14.8,0.1,14.8l2.8,2.8h11.8l2.9-3V15.7c0,0,7.1-4.6,14.4,1.8c0.2,0.1,0.4,0.2,0.6,0.2h10.8
		c0.5,0,0.9-0.4,0.9-0.9V1.1c0-0.6-0.5-1.1-1.1-1.1L129.7,0z M110.8,29.6h-9.2l-0.8-3c0.4,0.1,11.2,0,11.2,0L110.8,29.6z M112,4.6
		H95.4C89.2,4.4,79,10,74.5,15C81,3.8,95,1.6,95,1.6h17L112,4.6z M138.8,3.8h-7.8c-0.6,0-1.1-0.5-1.1-1.1c0-0.6,0.5-1.1,1.1-1.1h7.8
		c0.6,0,1.1,0.5,1.1,1.1C139.9,3.3,139.4,3.8,138.8,3.8z"/>
	<g>
		<g>
			<path class="st0" d="M42,84.9L42,84.9l-4.5,12.3h-1.3l-4.3-12.3h-0.1L30.2,97h-3.8l3.3-20h2.7l4.8,12.8L41.7,77h2.7l2.9,20h-3.8
				L42,84.9z"/>
			<path class="st0" d="M53,92.9L51.4,97h-4L55,77h2.9l7.4,20h-4.1l-1.5-4.1H53z M56.3,82.7L56.3,82.7l-2.2,7.1h4.6L56.3,82.7z"/>
			<path class="st0" d="M66.5,77h2.7l10.2,13.6h0.1V77.5h3.8v19.8h-2.7L70.3,83.8h-0.1V97h-3.8V77z"/>
		</g>
	</g>
	<path class="st0" d="M20.2,90.8l-1,5.8c0,0.1-0.1,0.2-0.2,0.2c-0.1,0-0.2,0-0.3-0.1l-3.2-5l-8.2-41l1.3-0.3
		c0.3-0.1,0.5-0.4,0.5-0.7c-0.1-0.3-0.4-0.5-0.7-0.5l-1.3,0.3l-0.4-1.9l1.4-0.3c0.3-0.1,0.5-0.4,0.5-0.7c-0.1-0.3-0.4-0.5-0.7-0.5
		l-1.4,0.3l-0.4-1.9l1.5-0.3C7.9,44.3,8.1,44,8,43.7c-0.1-0.3-0.4-0.5-0.7-0.5l-1.5,0.3l-0.6-3.1l-4-0.5c-0.5-0.1-0.9-0.4-1-0.9
		L0,37.7c-0.1-0.6,0.3-1.2,0.9-1.4v0L12.4,34c0.6-0.1,1.3,0.3,1.4,0.9l0.3,1.3c0.1,0.5-0.1,1-0.5,1.3l-3.6,2.1L20.2,90.8z"/>
	<g class="st1">
		<path class="st2" d="M124.7,153.3c-0.9-1.4-1.4-3-1.3-4.6c0-1.6,0.5-3.2,1.3-4.6l0.5,0.2c-0.8,1.3-1.3,2.9-1.3,4.4
			c0,1.5,0.4,3.1,1.3,4.4L124.7,153.3z"/>
		<path class="st2" d="M129.5,148.5L129.5,148.5c-0.3,0.2-0.5,0.3-0.8,0.3c-1.4,0-1.5-1.8-1.5-2.4c0-1.7,0.7-2.3,1.6-2.3
			c1.4,0,1.8,1.2,1.8,2.4c0,1.1-0.3,2.1-0.7,3.1l-1.2,2.9h-0.8L129.5,148.5z M128,146.5c0,0.6,0.1,1.7,1,1.7c0.8,0,0.9-1.1,0.9-1.7
			c0-0.6-0.1-1.7-1-1.7S128,145.9,128,146.5z"/>
		<path class="st2" d="M136.4,148.3c0,1.6-0.1,4.2-1.8,4.2c-1.8,0-1.8-2.6-1.8-4.2c0-1.6,0.1-4.2,1.8-4.2
			C136.3,144.1,136.4,146.7,136.4,148.3z M133.5,148.3c0,1.5,0,3.5,1.1,3.5s1.1-2,1.1-3.5c0-1.5,0-3.5-1.1-3.5
			S133.5,146.8,133.5,148.3z"/>
		<path class="st2" d="M141.6,144.8h-1.8l-0.3,2.5l0.5,0c1.4,0,1.9,1.4,1.9,2.6c0,1.2-0.5,2.6-1.9,2.6c-0.5,0-1-0.2-1.4-0.5l0.2-0.8
			c0.3,0.3,0.7,0.5,1.2,0.5c0.9,0,1.2-1.1,1.2-1.8c0-0.9-0.3-1.8-1.4-1.8c-0.4,0-0.8,0.1-1.1,0.3l0.5-4.2h2.4V144.8z"/>
		<path class="st2" d="M143.8,153.1c0.8-1.3,1.3-2.9,1.3-4.4c0-1.5-0.4-3.1-1.3-4.4l0.5-0.2c0.9,1.4,1.4,3,1.3,4.6
			c0,1.6-0.4,3.2-1.3,4.6L143.8,153.1z"/>
		<path class="st2" d="M154.1,148.5L154.1,148.5c-0.3,0.2-0.5,0.3-0.8,0.3c-1.4,0-1.5-1.8-1.5-2.4c0-1.7,0.7-2.3,1.6-2.3
			c1.4,0,1.8,1.2,1.8,2.4c0,1.1-0.3,2.1-0.7,3.1l-1.2,2.9h-0.8L154.1,148.5z M152.5,146.5c0,0.6,0.1,1.7,1,1.7
			c0.8,0,0.9-1.1,0.9-1.7c0-0.6-0.1-1.7-1-1.7S152.5,145.9,152.5,146.5z"/>
		<path class="st2" d="M160.6,152.4h-3.4l1.6-3.4c0.5-0.9,1.1-2.1,1.1-3.1c0-0.6-0.2-1.1-0.9-1.1c-0.8,0-0.9,0.8-0.9,1.5v0.2h-0.7
			c0-1.1,0.3-2.3,1.6-2.3c1.2,0,1.7,0.8,1.7,1.9c0,1.2-0.6,2.3-1.1,3.4l-1.2,2.4h2.2V152.4z"/>
		<path class="st2" d="M165.3,148.5L165.3,148.5c-0.3,0.2-0.5,0.3-0.8,0.3c-1.4,0-1.5-1.8-1.5-2.4c0-1.7,0.7-2.3,1.6-2.3
			c1.4,0,1.8,1.2,1.8,2.4c0,1.1-0.3,2.1-0.7,3.1l-1.2,2.9h-0.8L165.3,148.5z M163.7,146.5c0,0.6,0.1,1.7,1,1.7
			c0.8,0,0.9-1.1,0.9-1.7c0-0.6-0.1-1.7-1-1.7C163.8,144.7,163.7,145.9,163.7,146.5z"/>
		<path class="st2" d="M168,148.5h5.4v0.9H168V148.5z"/>
		<path class="st2" d="M178.4,152.4H175l1.6-3.4c0.5-0.9,1.1-2.1,1.1-3.1c0-0.6-0.2-1.1-0.9-1.1c-0.8,0-0.9,0.8-0.9,1.5v0.2h-0.7
			c0-1.1,0.3-2.3,1.6-2.3c1.2,0,1.7,0.8,1.7,1.9c0,1.2-0.6,2.3-1.1,3.4l-1.2,2.4h2.2V152.4z"/>
		<path class="st2" d="M184.2,150c0,1.2-0.4,2.4-1.8,2.4c-1.3,0-1.7-1.2-1.7-2.3c0-0.8,0.1-2,1-2.4c-0.7-0.4-0.8-1-0.8-1.8
			c0-1,0.5-2,1.6-2c1.1,0,1.6,1,1.6,1.9c0,0.8-0.2,1.4-0.9,1.8C184,148.2,184.2,149.2,184.2,150z M183.4,150c0-0.6-0.1-1.8-1-1.8
			c-0.9,0-1,1.2-1,1.9c0,0.7,0.1,1.8,1,1.8C183.3,151.8,183.4,150.6,183.4,150z M183.4,146.1c0-0.6-0.1-1.4-0.9-1.4
			c-0.7,0-0.8,0.7-0.8,1.3c0,0.6,0.1,1.5,0.9,1.5C183.2,147.5,183.4,146.7,183.4,146.1z"/>
		<path class="st2" d="M189.6,152.4h-3.4l1.6-3.4c0.5-0.9,1.1-2.1,1.1-3.1c0-0.6-0.2-1.1-0.9-1.1c-0.8,0-0.9,0.8-0.9,1.5v0.2h-0.7
			c0-1.1,0.3-2.3,1.6-2.3c1.2,0,1.7,0.8,1.7,1.9c0,1.2-0.6,2.3-1.1,3.4l-1.2,2.4h2.2V152.4z"/>
		<path class="st2" d="M193.1,148L193.1,148c0.3-0.2,0.5-0.3,0.8-0.3c1.2,0,1.5,1.5,1.5,2.4c0,1.1-0.3,2.3-1.6,2.3
			c-1.4,0-1.8-1.2-1.8-2.4c0-1.1,0.3-2.1,0.7-3.1l1.2-2.9h0.8L193.1,148z M193.7,151.8c0.9,0,0.9-1.2,0.9-1.8c0-0.6-0.1-1.7-1-1.7
			c-0.8,0-0.9,1.1-0.9,1.7C192.7,150.7,192.8,151.8,193.7,151.8z"/>
	</g>
	<g class="st1">
		<g class="st2">
			<path d="M21.3,152.6h-0.7l-2.7-3.9h-0.2v3.9h-0.5v-8.3h1.2c0.8,0,1.3,0.1,1.8,0.4c0.5,0.4,0.8,1,0.8,1.8c0,0.9-0.4,1.6-1,1.9
				c-0.3,0.2-0.7,0.2-1.3,0.3L21.3,152.6z M18.5,148.2c1.2,0,1.9-0.6,1.9-1.7c0-0.6-0.3-1.2-0.7-1.4c-0.3-0.2-0.7-0.2-1.3-0.2h-0.7
				v3.4H18.5z"/>
			<path d="M23,144.3h0.6l2.4,4.2l2.4-4.2h0.6l-2.8,4.8v3.6h-0.5v-3.6L23,144.3z"/>
			<path d="M31.6,149.9l-1.1,2.7h-0.6l3.5-8.6l3.5,8.6h-0.6l-1.1-2.7H31.6z M33.4,145.5l-1.6,3.9H35L33.4,145.5z"/>
			<path d="M39.4,144.2l7,7.3v-7.2H47v8.5l-7-7.3v7.1h-0.5V144.2z"/>
			<path d="M55.3,152.6h-0.5v-8.3h1.6c0.8,0,1.4,0.2,1.8,0.6c0.4,0.4,0.6,0.9,0.6,1.5c0,1.4-0.9,2.2-2.4,2.2h-1.1V152.6z
				 M56.4,148.2c1.1,0,1.8-0.7,1.8-1.7c0-0.5-0.2-0.9-0.4-1.2c-0.3-0.3-0.8-0.5-1.5-0.5h-1v3.4H56.4z"/>
			<path d="M65.7,152.6H65l-2.7-3.9h-0.2v3.9h-0.5v-8.3h1.2c0.8,0,1.3,0.1,1.8,0.4c0.5,0.4,0.8,1,0.8,1.8c0,0.9-0.4,1.6-1,1.9
				c-0.3,0.2-0.7,0.2-1.3,0.3L65.7,152.6z M62.9,148.2c1.2,0,1.9-0.6,1.9-1.7c0-0.6-0.3-1.2-0.7-1.4c-0.3-0.2-0.7-0.2-1.3-0.2h-0.7
				v3.4H62.9z"/>
			<path d="M69.2,152.6h-0.5v-8.3h0.5V152.6z"/>
			<path d="M79.3,146c-0.4-0.4-0.6-0.6-1-0.8c-0.6-0.3-1.2-0.5-1.8-0.5c-2,0-3.7,1.8-3.7,3.8c0,1.1,0.5,2.1,1.3,2.8
				c0.7,0.6,1.6,1,2.4,1c0.7,0,1.5-0.2,2.1-0.6c0.3-0.2,0.4-0.3,0.7-0.6v0.7c-0.9,0.7-1.8,1-2.8,1c-2.4,0-4.3-2-4.3-4.3
				c0-2.3,2-4.3,4.3-4.3c1.1,0,1.9,0.3,2.8,1.1V146z"/>
			<path d="M82.9,144.8v3h3.4v0.5h-3.4v3.8h3.4v0.5h-4v-8.3h4v0.5H82.9z"/>
		</g>
	</g>
	<line class="st3" x1="124" y1="160.4" x2="124" y2="160.3"/>
</g>
</svg>
