<?xml version="1.0" encoding="utf-8"?>
<!-- Generator: Adobe Illustrator 27.5.0, SVG Export Plug-In . SVG Version: 6.00 Build 0)  -->
<svg version="1.1" id="Layer_1" xmlns="http://www.w3.org/2000/svg" xmlns:xlink="http://www.w3.org/1999/xlink" x="0px" y="0px"
	 viewBox="0 0 512 512" style="enable-background:new 0 0 512 512;" xml:space="preserve">
<style type="text/css">
	.st0{fill:#FFFFFF;}
</style>
<path class="st0" d="M160,368c26.5,0,48,21.5,48,48v16l72.5-54.4c8.3-6.2,18.4-9.6,28.8-9.6H448c8.8,0,16-7.2,16-16V64
	c0-8.8-7.2-16-16-16H64c-8.8,0-16,7.2-16,16v288c0,8.8,7.2,16,16,16H160z M208,492l-0.2,0.2l-5.1,3.8l-17.1,12.8
	c-4.8,3.6-11.3,4.2-16.8,1.5s-8.8-8.2-8.8-14.3v-21.3v-6.4V468v-4v-48h-48H64c-35.3,0-64-28.7-64-64V64C0,28.7,28.7,0,64,0h384
	c35.3,0,64,28.7,64,64v288c0,35.3-28.7,64-64,64H309.3L208,492z"/>
</svg>
