<?xml version="1.0" encoding="utf-8"?>
<!-- Generator: Adobe Illustrator 27.5.0, SVG Export Plug-In . SVG Version: 6.00 Build 0)  -->
<svg version="1.1" id="Layer_1" xmlns="http://www.w3.org/2000/svg" xmlns:xlink="http://www.w3.org/1999/xlink" x="0px" y="0px"
	 viewBox="0 0 27.3 23.8" style="enable-background:new 0 0 27.3 23.8;" xml:space="preserve">
<style type="text/css">
	.st0{opacity:0.5;}
	.st1{fill:#FFFFFF;}
</style>
<g class="st0">
	<path class="st1" d="M0,15.6C0,8.8,3.7,3.1,9.8,0l1.8,3.3C7.1,5.9,4.6,9.9,4.6,15.1l1.3,5.3l-3.7-4.6c1.2-1.3,2.7-2.2,4.3-2.2
		c2.8,0,4.8,2,4.8,5c0,3.1-2,5.2-5,5.2C2.6,23.8,0,20.7,0,15.6z M15.6,15.6c0-6.8,3.7-12.4,9.8-15.6l1.8,3.3
		c-4.5,2.6-7.1,6.5-7.1,11.8l1.3,5.3l-3.7-4.6c1.2-1.3,2.7-2.2,4.3-2.2c2.8,0,4.8,2,4.8,5c0,3.1-2,5.2-5,5.2
		C18.2,23.8,15.6,20.7,15.6,15.6z"/>
</g>
</svg>
