<?xml version="1.0" encoding="utf-8"?>
<!-- Generator: Adobe Illustrator 28.2.0, SVG Export Plug-In . SVG Version: 6.00 Build 0)  -->
<svg version="1.1" id="Layer_1" xmlns="http://www.w3.org/2000/svg" xmlns:xlink="http://www.w3.org/1999/xlink" x="0px" y="0px"
	 viewBox="0 0 270.7 270.7" style="enable-background:new 0 0 270.7 270.7;" xml:space="preserve">
<style type="text/css">
	.st0{fill:#ED2024;}
	.st1{fill:#FFFFFF;}
</style>
<polygon class="st0" points="244.8,54.3 198.7,110.4 270.7,119.9 202.7,145.4 260.3,189.6 188.6,177.7 216.4,244.8 160.3,198.7 
	150.8,270.7 125.3,202.7 81.1,260.3 93,188.6 25.9,216.4 72,160.3 0,150.8 68,125.3 10.4,81.1 82,93 54.3,25.9 110.4,72 119.9,0 
	145.4,68 189.6,10.4 177.7,82 "/>
<g>
	<path class="st1" d="M93.2,116.8h-5.5l-2.5-6.7c0-0.1-0.1-0.3-0.1-0.4c-0.1-0.2-0.1-0.4-0.2-0.7l0,1.2v6.6h-5V98H85
		c2.3,0,4,0.4,5.1,1.3c1.4,1.1,2.2,2.8,2.2,4.9c0,2.3-1,3.8-2.9,4.7L93.2,116.8z M84.9,106.4h0.3c0.6,0,1.1-0.2,1.5-0.7
		c0.4-0.4,0.6-1,0.6-1.7c0-1.4-0.7-2.1-2.2-2.1h-0.2V106.4z"/>
	<path class="st1" d="M94.8,116.8V98h9.4v4.5h-4.3v2.4h3.9v4.5h-3.9v2.9h4.3v4.5H94.8z"/>
	<path class="st1" d="M119.9,116.8h-5.2l-0.4-2.4h-3.4l-0.4,2.4h-5.2l4.5-18.7h6.2L119.9,116.8z M113.7,110.4l-0.3-2.2
		c0,0,0-0.1,0-0.3c0-0.2-0.1-0.9-0.3-2.1c0-0.1,0-0.3-0.1-0.6c0-0.2-0.1-0.5-0.1-0.9l-0.2-1.8c0,0.2,0,0.4-0.1,0.6s-0.1,0.4-0.1,0.7
		c-0.1,0.5-0.1,0.8-0.1,1s0,0.3,0,0.4l-0.4,2.3l-0.5,2.9H113.7z"/>
	<path class="st1" d="M130.2,116.8h-8.9V98h5.1v14.3h3.8V116.8z"/>
	<path class="st1" d="M137.8,116.8h-5.1v-14.3h-2.8V98h10.8v4.5h-2.9V116.8z"/>
	<path class="st1" d="M155.9,107.5c0,2.8-0.7,5-2,6.7c-1.3,1.7-3,2.6-5.1,2.6c-1.8,0-3.4-0.7-4.7-2c-1.7-1.7-2.5-4.2-2.5-7.5
		c0-3.2,0.9-5.7,2.6-7.4c1.3-1.3,2.8-1.9,4.6-1.9c2.2,0,3.9,0.9,5.2,2.6C155.2,102.3,155.9,104.6,155.9,107.5z M150.6,107.5
		c0-3.3-0.6-5-1.8-5c-0.6,0-1.1,0.4-1.4,1.3c-0.3,0.8-0.5,2-0.5,3.6c0,1.5,0.2,2.7,0.5,3.6c0.3,0.9,0.8,1.3,1.4,1.3
		c0.6,0,1.1-0.4,1.4-1.3C150.4,110.2,150.6,109,150.6,107.5z"/>
	<path class="st1" d="M171.4,116.8h-5.5l-2.5-6.7c0-0.1-0.1-0.3-0.1-0.4c-0.1-0.2-0.1-0.4-0.2-0.7l0,1.2v6.6h-5V98h5.2
		c2.3,0,4,0.4,5.1,1.3c1.4,1.1,2.2,2.8,2.2,4.9c0,2.3-1,3.8-2.9,4.7L171.4,116.8z M163.1,106.4h0.3c0.6,0,1.1-0.2,1.5-0.7
		c0.4-0.4,0.6-1,0.6-1.7c0-1.4-0.7-2.1-2.2-2.1h-0.2V106.4z"/>
	<path class="st1" d="M172.6,116v-5.8c1,1.4,2.1,2,3.2,2c0.4,0,0.8-0.1,1.1-0.3c0.3-0.2,0.4-0.5,0.4-0.8c0-0.5-0.3-1-0.9-1.4
		l-0.8-0.6c-0.6-0.4-1-0.8-1.4-1.2c-0.4-0.4-0.7-0.8-0.9-1.2c-0.2-0.4-0.4-0.8-0.5-1.3c-0.1-0.4-0.2-0.9-0.2-1.4
		c0-0.8,0.2-1.7,0.6-2.6c0.2-0.4,0.4-0.8,0.7-1.2c0.3-0.4,0.6-0.7,0.9-0.9c1-0.8,2.1-1.2,3.5-1.2c1.2,0,2.4,0.3,3.6,0.9v5.6
		c-0.4-0.6-0.9-1.1-1.4-1.5c-0.5-0.4-1-0.6-1.6-0.6c-0.4,0-0.7,0.1-1,0.3c-0.3,0.2-0.4,0.5-0.4,0.8c0,0.5,0.3,1,1,1.4l0.8,0.6
		c1.1,0.7,1.8,1.5,2.3,2.3c0.5,0.8,0.7,1.7,0.7,2.7c0,1.8-0.6,3.2-1.7,4.4c-1.1,1.2-2.5,1.7-4.3,1.7
		C175.3,116.8,174,116.5,172.6,116z"/>
	<path class="st1" d="M190.5,114c0,0.8-0.3,1.4-0.8,2c-0.6,0.6-1.2,0.8-2,0.8c-0.8,0-1.4-0.3-2-0.8c-0.5-0.6-0.8-1.3-0.8-2
		c0-0.8,0.3-1.5,0.8-2c0.6-0.6,1.2-0.8,2-0.8c0.8,0,1.5,0.3,2,0.8C190.2,112.5,190.5,113.1,190.5,114z M190.1,108.8h-4.9V97h4.9
		V108.8z"/>
	<path class="st1" d="M79.7,124h6.8v2.1h-4.2v5.9h3.8v2.1h-3.8v8.5h-2.5V124z"/>
	<path class="st1" d="M89.7,124.9c0.4,0,0.8,0.2,1.1,0.5c0.3,0.3,0.5,0.7,0.5,1.1c0,0.4-0.2,0.8-0.5,1.1c-0.3,0.3-0.7,0.5-1.1,0.5
		s-0.8-0.2-1.1-0.5c-0.3-0.3-0.4-0.7-0.4-1.1c0-0.4,0.2-0.8,0.5-1.1C88.9,125,89.2,124.9,89.7,124.9z M88.6,130.2h2.3v12.6h-2.3
		V130.2z"/>
	<path class="st1" d="M93.5,130.2h2.3v1.4c0.7-1.1,1.5-1.7,2.6-1.7c1,0,1.7,0.4,2.2,1.2c0.2,0.5,0.4,1.3,0.4,2.6v8.9h-2.3l0-8.4
		c0-0.9-0.1-1.5-0.3-1.8c-0.2-0.4-0.6-0.5-1-0.5c-0.3,0-0.5,0-0.7,0.1c-0.2,0.1-0.3,0.2-0.4,0.4s-0.2,0.5-0.2,0.8
		c-0.1,0.3-0.1,0.7-0.1,1.2v8.1h-2.3V130.2z"/>
	<path class="st1" d="M110.8,122.1v20.6h-2.3v-1.6c-0.3,0.7-0.7,1.2-1,1.4s-0.8,0.4-1.3,0.4c-1,0-1.8-0.5-2.3-1.6
		c-0.5-1.1-0.7-2.7-0.7-5c0-1.1,0.1-2.1,0.2-2.9c0.1-0.8,0.3-1.5,0.6-2c0.2-0.5,0.6-0.9,1-1.1c0.4-0.2,0.8-0.4,1.4-0.4
		c0.5,0,0.9,0.1,1.3,0.4c0.2,0.1,0.3,0.3,0.5,0.5s0.3,0.5,0.5,0.8v-9.5H110.8z M105.5,136.4c0,1.7,0.1,2.8,0.3,3.5
		c0.2,0.7,0.6,1,1.2,1c0.5,0,0.9-0.3,1.1-1c0.2-0.7,0.4-1.8,0.4-3.4c0-1.5-0.1-2.6-0.4-3.4c-0.2-0.7-0.6-1-1.1-1
		c-0.6,0-0.9,0.3-1.2,1C105.6,133.7,105.5,134.8,105.5,136.4z"/>
	<path class="st1" d="M126,136.6c0,4.2-1.3,6.4-3.9,6.4c-2.6,0-3.9-2.2-3.9-6.5c0-4.3,1.3-6.5,3.9-6.5c0.7,0,1.3,0.1,1.8,0.4
		c0.5,0.3,0.9,0.7,1.2,1.2c0.3,0.5,0.6,1.2,0.7,2.1C125.9,134.5,126,135.4,126,136.6z M123.6,136.5c0-1.7-0.1-2.8-0.3-3.4
		c-0.2-0.7-0.6-1-1.2-1c-0.6,0-0.9,0.3-1.2,1c-0.2,0.6-0.3,1.8-0.3,3.4c0,1.6,0.1,2.7,0.3,3.4c0.2,0.6,0.6,1,1.2,1
		c0.5,0,0.9-0.3,1.2-1C123.4,139.2,123.6,138.1,123.6,136.5z"/>
	<path class="st1" d="M128.1,130.2h2.3v8.4c0,0.8,0.1,1.3,0.3,1.7c0.2,0.3,0.6,0.5,1.1,0.5c0.5,0,0.9-0.1,1.1-0.4
		c0.2-0.3,0.3-0.8,0.3-1.6v-1v-7.5h2.3v7.5c0,1.8-0.1,2.9-0.4,3.5c-0.5,1.1-1.7,1.7-3.4,1.7c-1.3,0-2.3-0.3-2.9-1
		c-0.6-0.7-0.8-1.8-0.8-3.4V130.2z"/>
	<path class="st1" d="M138.5,126.7h2.3v3.5h1.3v1.8h-1.3v10.7h-2.3V132h-1.3v-1.8h1.3V126.7z"/>
	<path class="st1" d="M156.1,130.2v12.6h-2.3v-1.6c-0.3,0.7-0.7,1.2-1,1.4s-0.8,0.4-1.3,0.4c-1,0-1.8-0.5-2.3-1.6
		c-0.5-1.1-0.7-2.7-0.7-5c0-2.2,0.2-3.8,0.7-4.8c0.5-1,1.2-1.5,2.3-1.5c1,0,1.7,0.5,2.3,1.6v-1.4H156.1z M150.8,136.4
		c0,1.7,0.1,2.8,0.3,3.5c0.2,0.7,0.6,1,1.2,1c0.5,0,0.9-0.3,1.1-1c0.2-0.7,0.4-1.8,0.4-3.4c0-1.5-0.1-2.6-0.4-3.4
		c-0.2-0.7-0.6-1-1.1-1c-0.6,0-0.9,0.3-1.2,1C150.9,133.7,150.8,134.8,150.8,136.4z"/>
	<path class="st1" d="M158.7,122.1h2.3v9.5c0.2-0.3,0.3-0.6,0.5-0.8s0.3-0.4,0.5-0.5c0.3-0.2,0.7-0.4,1.3-0.4c0.5,0,1,0.1,1.4,0.4
		c0.4,0.2,0.7,0.6,1,1.1s0.4,1.2,0.6,2s0.2,1.8,0.2,2.9c0,2.3-0.2,4-0.7,5c-0.5,1.1-1.2,1.6-2.3,1.6c-0.5,0-1-0.1-1.3-0.4
		s-0.7-0.7-1-1.4v1.6h-2.3V122.1z M163.9,136.6c0-1.7-0.1-2.9-0.3-3.5c-0.2-0.7-0.6-1-1.2-1c-0.5,0-0.9,0.3-1.1,1
		c-0.2,0.7-0.3,1.8-0.3,3.4c0,1.6,0.1,2.7,0.3,3.4c0.2,0.7,0.6,1,1.1,1c0.6,0,0.9-0.3,1.2-1C163.8,139.3,163.9,138.2,163.9,136.6z"
		/>
	<path class="st1" d="M175.9,136.6c0,4.2-1.3,6.4-3.9,6.4c-2.6,0-3.9-2.2-3.9-6.5c0-4.3,1.3-6.5,3.9-6.5c0.7,0,1.3,0.1,1.8,0.4
		c0.5,0.3,0.9,0.7,1.2,1.2c0.3,0.5,0.6,1.2,0.7,2.1C175.8,134.5,175.9,135.4,175.9,136.6z M173.5,136.5c0-1.7-0.1-2.8-0.3-3.4
		c-0.2-0.7-0.6-1-1.2-1c-0.6,0-0.9,0.3-1.2,1c-0.2,0.6-0.3,1.8-0.3,3.4c0,1.6,0.1,2.7,0.3,3.4c0.2,0.6,0.6,1,1.2,1
		c0.5,0,0.9-0.3,1.2-1C173.4,139.2,173.5,138.1,173.5,136.5z"/>
	<path class="st1" d="M178.1,130.2h2.3v8.4c0,0.8,0.1,1.3,0.3,1.7c0.2,0.3,0.6,0.5,1.1,0.5c0.5,0,0.9-0.1,1.1-0.4
		c0.2-0.3,0.3-0.8,0.3-1.6v-1v-7.5h2.3v7.5c0,1.8-0.1,2.9-0.4,3.5c-0.5,1.1-1.7,1.7-3.4,1.7c-1.3,0-2.3-0.3-2.9-1
		c-0.6-0.7-0.8-1.8-0.8-3.4V130.2z"/>
	<path class="st1" d="M188.5,126.7h2.3v3.5h1.3v1.8h-1.3v10.7h-2.3V132h-1.3v-1.8h1.3V126.7z"/>
	<path class="st1" d="M89.5,156.5v2.2c-0.6-0.4-1.2-0.6-1.8-0.6c-0.2,0-0.4,0-0.6,0.1s-0.3,0.2-0.5,0.3c-0.1,0.1-0.2,0.3-0.3,0.4
		c-0.1,0.2-0.1,0.4-0.1,0.6c0,0.6,0.5,1.3,1.6,2.1c0.4,0.3,0.8,0.7,1.1,0.9c0.3,0.3,0.5,0.6,0.7,0.8c0.3,0.5,0.5,1.2,0.5,1.9
		c0,1.1-0.3,2-1,2.7c-0.6,0.7-1.5,1-2.6,1c-0.7,0-1.4-0.2-2-0.6v-2.2c0.7,0.5,1.3,0.8,1.9,0.8c1.1,0,1.6-0.5,1.6-1.6
		c0-0.4-0.1-0.7-0.3-1c-0.1-0.1-0.2-0.3-0.4-0.5s-0.4-0.4-0.7-0.6c-1-0.8-1.6-1.4-2-1.9c-0.3-0.5-0.5-1.2-0.5-1.9
		c0-1,0.3-1.8,0.9-2.5c0.6-0.6,1.5-1,2.5-1C88.1,155.9,88.8,156.1,89.5,156.5z"/>
	<path class="st1" d="M91.9,173.9v-17.7h2.3v1.6c0.3-0.7,0.7-1.2,1-1.4s0.8-0.4,1.3-0.4c1,0,1.8,0.5,2.3,1.6c0.5,1.1,0.7,2.8,0.7,5
		c0,2.2-0.2,3.8-0.7,4.8c-0.5,1-1.3,1.5-2.3,1.5c-0.5,0-0.9-0.1-1.3-0.4c-0.2-0.1-0.3-0.3-0.5-0.5c-0.2-0.2-0.3-0.5-0.5-0.8v6.6
		H91.9z M97.2,162.6c0-1.7-0.1-2.9-0.3-3.5c-0.2-0.7-0.6-1-1.2-1c-0.5,0-0.9,0.3-1.1,1c-0.2,0.6-0.3,1.8-0.3,3.4s0.1,2.7,0.3,3.4
		c0.2,0.7,0.6,1,1.1,1c0.6,0,0.9-0.3,1.2-1C97.1,165.3,97.2,164.2,97.2,162.6z"/>
	<path class="st1" d="M106.6,164.5h2.2c-0.2,3-1.4,4.4-3.6,4.4c-0.7,0-1.2-0.1-1.7-0.4s-0.9-0.6-1.2-1.2c-0.3-0.5-0.5-1.2-0.7-2
		c-0.1-0.8-0.2-1.8-0.2-2.9c0-2.2,0.3-3.9,0.9-4.9s1.6-1.6,2.9-1.6c2.5,0,3.8,2.2,3.8,6.7v0.3h-5.3c0,2.7,0.5,4,1.6,4
		C106.1,167,106.6,166.2,106.6,164.5z M106.5,161.3c-0.1-1.3-0.2-2.2-0.4-2.6c-0.2-0.5-0.6-0.7-1-0.7c-0.5,0-0.8,0.2-1,0.7
		c-0.2,0.4-0.4,1.3-0.4,2.6H106.5z"/>
	<path class="st1" d="M116.1,156.4v2.4c-0.3-0.4-0.7-0.6-1.2-0.6c-1.3,0-1.9,1.4-1.9,4.2c0,2.9,0.6,4.4,1.9,4.4
		c0.4,0,0.7-0.2,1.2-0.5v2.2c-0.6,0.3-1.2,0.5-1.9,0.5c-2.5,0-3.7-2.1-3.7-6.4c0-2.3,0.3-3.9,0.9-5c0.6-1.1,1.6-1.6,2.9-1.6
		C114.9,156,115.5,156.1,116.1,156.4z"/>
	<path class="st1" d="M119.1,150.9c0.4,0,0.8,0.2,1.1,0.5s0.5,0.7,0.5,1.1c0,0.4-0.2,0.8-0.5,1.1s-0.7,0.5-1.1,0.5
		c-0.4,0-0.8-0.2-1.1-0.5c-0.3-0.3-0.4-0.7-0.4-1.1c0-0.4,0.2-0.8,0.5-1.1C118.3,151,118.7,150.9,119.1,150.9z M118,156.2h2.3v12.6
		H118V156.2z"/>
	<path class="st1" d="M130.1,156.2v12.6h-2.3v-1.6c-0.3,0.7-0.7,1.2-1,1.4s-0.8,0.4-1.3,0.4c-1,0-1.8-0.5-2.3-1.6
		c-0.5-1.1-0.7-2.7-0.7-5c0-2.2,0.2-3.8,0.7-4.8c0.5-1,1.2-1.5,2.3-1.5c1,0,1.7,0.5,2.3,1.6v-1.4H130.1z M124.9,162.4
		c0,1.7,0.1,2.8,0.3,3.5c0.2,0.7,0.6,1,1.2,1c0.5,0,0.9-0.3,1.1-1c0.2-0.7,0.4-1.8,0.4-3.4c0-1.5-0.1-2.6-0.4-3.4
		c-0.2-0.7-0.6-1-1.1-1c-0.6,0-0.9,0.3-1.2,1C125,159.7,124.9,160.8,124.9,162.4z"/>
	<path class="st1" d="M132.8,148.1h2.3v20.6h-2.3V148.1z"/>
	<path class="st1" d="M150.3,162.6c0,4.2-1.3,6.4-3.9,6.4c-2.6,0-3.9-2.2-3.9-6.5c0-4.3,1.3-6.5,3.9-6.5c0.7,0,1.3,0.1,1.8,0.4
		c0.5,0.3,0.9,0.7,1.2,1.2c0.3,0.5,0.6,1.2,0.7,2.1C150.2,160.5,150.3,161.4,150.3,162.6z M147.9,162.5c0-1.7-0.1-2.8-0.3-3.4
		c-0.2-0.7-0.6-1-1.2-1c-0.6,0-0.9,0.3-1.2,1c-0.2,0.6-0.3,1.8-0.3,3.4c0,1.6,0.1,2.7,0.3,3.4c0.2,0.6,0.6,1,1.2,1
		c0.5,0,0.9-0.3,1.2-1C147.8,165.2,147.9,164.1,147.9,162.5z"/>
	<path class="st1" d="M151.6,156.2h1.2v-4.4c0-1.4,0.2-2.4,0.6-3s1.2-0.9,2.2-0.9c0.5,0,1,0.1,1.6,0.3v2.5c-0.4-0.2-0.7-0.3-1-0.3
		c-0.4,0-0.7,0.1-0.8,0.4s-0.2,0.6-0.2,1.2l0,0.9v3.3h2v1.8h-2v10.7h-2.3V158h-1.2V156.2z"/>
	<path class="st1" d="M158.2,156.2h1.2v-4.4c0-1.4,0.2-2.4,0.6-3s1.2-0.9,2.2-0.9c0.5,0,1,0.1,1.6,0.3v2.5c-0.4-0.2-0.7-0.3-1-0.3
		c-0.4,0-0.7,0.1-0.8,0.4s-0.2,0.6-0.2,1.2l0,0.9v3.3h2v1.8h-2v10.7h-2.3V158h-1.2V156.2z"/>
	<path class="st1" d="M170,164.5h2.2c-0.2,3-1.4,4.4-3.6,4.4c-0.7,0-1.2-0.1-1.7-0.4s-0.9-0.6-1.2-1.2c-0.3-0.5-0.5-1.2-0.7-2
		c-0.2-0.8-0.2-1.8-0.2-2.9c0-2.2,0.3-3.9,0.9-4.9s1.6-1.6,2.9-1.6c2.5,0,3.8,2.2,3.8,6.7v0.3H167c0,2.7,0.5,4,1.6,4
		C169.6,167,170,166.2,170,164.5z M169.9,161.3c-0.1-1.3-0.2-2.2-0.4-2.6c-0.2-0.5-0.6-0.7-1-0.7c-0.5,0-0.8,0.2-1,0.7
		c-0.2,0.4-0.4,1.3-0.4,2.6H169.9z"/>
	<path class="st1" d="M174.4,156.2h2.3v1.6c0.4-0.7,0.8-1.1,1.2-1.4s0.9-0.4,1.5-0.5v2.4c-0.2,0-0.3,0-0.4,0c-0.8,0-1.4,0.2-1.8,0.6
		c-0.3,0.4-0.5,1.2-0.5,2.2v7.6h-2.3V156.2z"/>
	<path class="st1" d="M186.2,156.5v2.2c-0.6-0.4-1.2-0.6-1.8-0.6c-0.2,0-0.4,0-0.6,0.1s-0.3,0.2-0.5,0.3c-0.1,0.1-0.2,0.3-0.3,0.4
		c-0.1,0.2-0.1,0.4-0.1,0.6c0,0.6,0.5,1.3,1.6,2.1c0.4,0.3,0.8,0.7,1.1,0.9c0.3,0.3,0.5,0.6,0.7,0.8c0.3,0.5,0.5,1.2,0.5,1.9
		c0,1.1-0.3,2-1,2.7c-0.6,0.7-1.5,1-2.6,1c-0.7,0-1.4-0.2-2-0.6v-2.2c0.7,0.5,1.3,0.8,1.9,0.8c1.1,0,1.6-0.5,1.6-1.6
		c0-0.4-0.1-0.7-0.3-1c-0.1-0.1-0.2-0.3-0.4-0.5s-0.4-0.4-0.7-0.6c-1-0.8-1.6-1.4-2-1.9c-0.3-0.5-0.5-1.2-0.5-1.9
		c0-1,0.3-1.8,0.9-2.5c0.6-0.6,1.5-1,2.5-1C184.8,155.9,185.5,156.1,186.2,156.5z"/>
</g>
</svg>
