<?xml version="1.0" encoding="utf-8"?>
<!-- Generator: Adobe Illustrator 28.2.0, SVG Export Plug-In . SVG Version: 6.00 Build 0)  -->
<svg version="1.1" id="Layer_1" xmlns="http://www.w3.org/2000/svg" xmlns:xlink="http://www.w3.org/1999/xlink" x="0px" y="0px"
	 viewBox="0 0 26 26" style="enable-background:new 0 0 26 26;" xml:space="preserve">
<style type="text/css">
	.st0{fill:#FFFFFF;}
</style>
<path class="st0" d="M13,0c-0.4,0-0.9,0-1.3,0.1C4.5,0.8-0.7,7.2,0.1,14.3c0.3,2.9,1.6,5.6,3.6,7.7c2.4,2.5,5.8,4,9.3,4
	c0.9,0,1.7-0.1,2.6-0.3c2.6-0.5,4.9-1.8,6.7-3.7l0,0l0,0c5-5.2,4.9-13.4-0.3-18.4C19.6,1.3,16.4,0,13,0z M21.5,19.9
	c-0.7-0.5-1.4-1-2.2-1.4c0.4-1.5,0.6-3,0.6-4.5h4C23.8,16.2,22.9,18.3,21.5,19.9z M20.1,21.4c-0.1,0.1-0.1,0.1-0.2,0.2
	c-0.2,0.2-0.4,0.3-0.6,0.5c-0.1,0.1-0.2,0.1-0.3,0.2c-0.2,0.1-0.4,0.2-0.5,0.3c-0.1,0.1-0.3,0.1-0.4,0.2c-0.2,0.1-0.4,0.2-0.5,0.3
	c0.5-0.8,0.9-1.7,1.3-2.6C19.2,20.8,19.7,21.1,20.1,21.4L20.1,21.4z M7.6,22.6c-0.2-0.1-0.4-0.2-0.6-0.4c-0.1-0.1-0.2-0.1-0.3-0.2
	c-0.2-0.2-0.4-0.3-0.7-0.5c-0.1,0-0.1-0.1-0.2-0.1l0,0c0.4-0.3,0.9-0.6,1.4-0.9C7.6,21.4,8,22.2,8.5,23C8.3,23,8.1,22.9,8,22.8
	C7.8,22.7,7.7,22.7,7.6,22.6z M4.5,6.1c0.7,0.5,1.4,1,2.2,1.4C6.3,9,6.1,10.5,6,12h-4C2.2,9.8,3.1,7.7,4.5,6.1z M5.9,4.6
	C6,4.5,6,4.5,6.1,4.4C6.3,4.3,6.5,4.1,6.7,4c0.1-0.1,0.2-0.1,0.3-0.2c0.2-0.1,0.4-0.2,0.6-0.3C7.7,3.3,7.9,3.3,8,3.2
	C8.2,3.1,8.3,3,8.5,3C8,3.8,7.6,4.6,7.3,5.5C6.8,5.2,6.3,4.9,5.9,4.6L5.9,4.6z M18.4,3.4c0.2,0.1,0.4,0.2,0.5,0.3
	c0.1,0.1,0.2,0.1,0.4,0.2c0.2,0.1,0.4,0.3,0.6,0.4C20,4.5,20,4.5,20.1,4.6l0,0c-0.4,0.3-0.9,0.6-1.4,0.9C18.4,4.6,18,3.8,17.5,3
	C17.7,3,17.8,3.1,18,3.2C18.2,3.3,18.3,3.3,18.4,3.4z M14,2.3c1.4,1,2.5,2.4,2.9,4.1C16,6.7,15,6.9,14,6.9V2.3z M8.5,8.3
	C9.6,8.6,10.8,8.9,12,9V12H8C8.1,10.7,8.2,9.5,8.5,8.3z M9.1,6.3c0.5-1.7,1.5-3.1,2.9-4.1v4.7C11,6.9,10,6.7,9.1,6.3z M12,14v3.1
	c-1.2,0.1-2.4,0.3-3.5,0.7C8.2,16.5,8.1,15.3,8,14H12z M12,19.1v4.7c-1.4-1-2.5-2.4-2.9-4.1C10,19.3,11,19.1,12,19.1z M17.5,17.7
	c-1.1-0.4-2.3-0.6-3.5-0.7V14h4C17.9,15.3,17.8,16.5,17.5,17.7z M16.9,19.7c-0.5,1.7-1.5,3.1-2.9,4.1v-4.7
	C15,19.1,16,19.3,16.9,19.7z M14,12V9c1.2-0.1,2.4-0.3,3.5-0.7c0.3,1.2,0.4,2.5,0.5,3.7H14z M6,14c0.1,1.5,0.3,3,0.6,4.5
	c-0.8,0.4-1.5,0.9-2.2,1.4c-1.4-1.7-2.2-3.8-2.4-5.9H6z M20,12c-0.1-1.5-0.3-3-0.6-4.5c0.8-0.4,1.5-0.9,2.2-1.4
	c1.4,1.7,2.2,3.8,2.4,5.9H20z"/>
</svg>
